<svg id="Layer_1" data-name="Layer 1" xmlns="http://www.w3.org/2000/svg" viewBox="0 0 800 800"><defs><style>.cls-1{fill:#f47a21;}.cls-2{opacity:0.12;}.cls-3{fill:none;stroke:#fff;stroke-miterlimit:10;stroke-width:3px;}.cls-4{fill:#fff;}</style></defs><title>InnovationLogo</title><circle class="cls-1" cx="400" cy="400" r="372.5"/><g class="cls-2"><line class="cls-3" x1="547" y1="109" x2="268.9" y2="114.98"/><circle class="cls-4" cx="547" cy="109" r="11.28" transform="translate(102.52 445.94) rotate(-48.43)"/><path class="cls-4" d="M268.65,103.71a11.28,11.28,0,1,0,11.52,11A11.28,11.28,0,0,0,268.65,103.71Z"/><line class="cls-3" x1="407.95" y1="161.13" x2="268.9" y2="114.98"/><path class="cls-4" d="M411.5,150.43a11.28,11.28,0,1,1-14.26,7.15A11.27,11.27,0,0,1,411.5,150.43Z"/><path class="cls-4" d="M272.45,104.28a11.28,11.28,0,1,0,7.15,14.26A11.28,11.28,0,0,0,272.45,104.28Z"/><line class="cls-3" x1="547" y1="109" x2="473.13" y2="144.04"/><path class="cls-4" d="M542.17,98.81a11.28,11.28,0,1,1-5.36,15A11.28,11.28,0,0,1,542.17,98.81Z"/><path class="cls-4" d="M468.29,133.85a11.28,11.28,0,1,0,15,5.36A11.28,11.28,0,0,0,468.29,133.85Z"/><line class="cls-3" x1="407.95" y1="128.66" x2="547" y2="109"/><path class="cls-4" d="M409.53,139.82a11.28,11.28,0,1,1,9.59-12.74A11.27,11.27,0,0,1,409.53,139.82Z"/><path class="cls-4" d="M548.58,120.17a11.28,11.28,0,1,0-12.75-9.59A11.28,11.28,0,0,0,548.58,120.17Z"/><line class="cls-3" x1="268.9" y1="114.98" x2="407.95" y2="128.66"/><path class="cls-4" d="M267.79,126.21a11.28,11.28,0,1,1,12.33-10.12A11.28,11.28,0,0,1,267.79,126.21Z"/><path class="cls-4" d="M406.84,139.88a11.28,11.28,0,1,0-10.12-12.33A11.28,11.28,0,0,0,406.84,139.88Z"/><line class="cls-3" x1="473.13" y1="144.04" x2="407.95" y2="128.66"/><path class="cls-4" d="M475.72,133.06a11.28,11.28,0,1,1-13.57,8.39A11.29,11.29,0,0,1,475.72,133.06Z"/><path class="cls-4" d="M410.54,117.68a11.28,11.28,0,1,0,8.39,13.57A11.28,11.28,0,0,0,410.54,117.68Z"/><line class="cls-3" x1="407.95" y1="161.13" x2="407.95" y2="128.66"/><path class="cls-4" d="M419.23,161.13A11.28,11.28,0,1,1,408,149.85,11.28,11.28,0,0,1,419.23,161.13Z"/><path class="cls-4" d="M419.23,128.66A11.28,11.28,0,1,0,408,139.94,11.28,11.28,0,0,0,419.23,128.66Z"/><line class="cls-3" x1="473.13" y1="144.04" x2="407.22" y2="164.55"/><path class="cls-4" d="M469.78,133.27a11.28,11.28,0,1,1-7.42,14.12A11.28,11.28,0,0,1,469.78,133.27Z"/><path class="cls-4" d="M403.87,153.78A11.28,11.28,0,1,0,418,161.2,11.29,11.29,0,0,0,403.87,153.78Z"/><line class="cls-3" x1="350.01" y1="361.11" x2="407.95" y2="161.13"/><path class="cls-4" d="M360.84,364.25a11.27,11.27,0,1,1-7.69-14A11.28,11.28,0,0,1,360.84,364.25Z"/><path class="cls-4" d="M418.78,164.27a11.28,11.28,0,1,0-14,7.7A11.27,11.27,0,0,0,418.78,164.27Z"/><line class="cls-3" x1="462.99" y1="438.89" x2="407.95" y2="161.13"/><path class="cls-4" d="M474.05,436.69a11.28,11.28,0,1,1-13.25-8.87A11.28,11.28,0,0,1,474.05,436.69Z"/><path class="cls-4" d="M419,158.94a11.28,11.28,0,1,0-8.87,13.26A11.27,11.27,0,0,0,419,158.94Z"/><line class="cls-3" x1="464.44" y1="248.3" x2="473.13" y2="144.04"/><path class="cls-4" d="M475.68,249.24a11.28,11.28,0,1,1-10.3-12.18A11.28,11.28,0,0,1,475.68,249.24Z"/><path class="cls-4" d="M484.37,145a11.28,11.28,0,1,0-12.18,10.3A11.28,11.28,0,0,0,484.37,145Z"/><line class="cls-3" x1="407.95" y1="161.13" x2="464.44" y2="248.3"/><path class="cls-4" d="M398.48,167.27a11.28,11.28,0,1,1,15.6,3.33A11.29,11.29,0,0,1,398.48,167.27Z"/><path class="cls-4" d="M455,254.44a11.28,11.28,0,1,0,3.33-15.6A11.29,11.29,0,0,0,455,254.44Z"/><line class="cls-3" x1="357.25" y1="204.72" x2="407.95" y2="161.13"/><path class="cls-4" d="M364.61,213.27a11.28,11.28,0,1,1,1.2-15.91A11.29,11.29,0,0,1,364.61,213.27Z"/><path class="cls-4" d="M415.3,169.69a11.28,11.28,0,1,0-15.9-1.2A11.29,11.29,0,0,0,415.3,169.69Z"/><line class="cls-3" x1="350.01" y1="361.11" x2="357.25" y2="204.72"/><path class="cls-4" d="M361.28,361.64a11.28,11.28,0,1,1-10.75-11.79A11.28,11.28,0,0,1,361.28,361.64Z"/><path class="cls-4" d="M368.52,205.24A11.28,11.28,0,1,0,356.73,216,11.28,11.28,0,0,0,368.52,205.24Z"/><line class="cls-3" x1="462.99" y1="438.89" x2="350.01" y2="361.11"/><path class="cls-4" d="M469.39,429.59a11.29,11.29,0,1,1-15.69,2.9A11.29,11.29,0,0,1,469.39,429.59Z"/><path class="cls-4" d="M356.41,351.82a11.29,11.29,0,1,0,2.89,15.69A11.29,11.29,0,0,0,356.41,351.82Z"/><line class="cls-3" x1="464.44" y1="248.3" x2="462.99" y2="438.89"/><path class="cls-4" d="M453.16,248.22a11.28,11.28,0,1,1,11.19,11.36A11.29,11.29,0,0,1,453.16,248.22Z"/><path class="cls-4" d="M451.71,438.8a11.28,11.28,0,1,0,11.37-11.19A11.27,11.27,0,0,0,451.71,438.8Z"/><line class="cls-3" x1="357.25" y1="204.72" x2="338.42" y2="152.59"/><path class="cls-4" d="M367.86,200.89a11.28,11.28,0,1,1-14.44-6.78A11.28,11.28,0,0,1,367.86,200.89Z"/><path class="cls-4" d="M349,148.75a11.28,11.28,0,1,0-6.78,14.44A11.28,11.28,0,0,0,349,148.75Z"/><line class="cls-3" x1="407.22" y1="161.13" x2="338.42" y2="152.59"/><path class="cls-4" d="M408.61,149.94a11.28,11.28,0,1,1-12.58,9.8A11.28,11.28,0,0,1,408.61,149.94Z"/><path class="cls-4" d="M339.81,141.39A11.28,11.28,0,1,0,349.62,154,11.28,11.28,0,0,0,339.81,141.39Z"/><line class="cls-3" x1="268.9" y1="114.98" x2="338.42" y2="152.59"/><circle class="cls-4" cx="268.9" cy="114.98" r="11.28" transform="translate(-15.28 184.03) rotate(-36.81)"/><path class="cls-4" d="M333.06,162.51a11.28,11.28,0,1,0-4.56-15.29A11.27,11.27,0,0,0,333.06,162.51Z"/><line class="cls-3" x1="266" y1="691" x2="544.1" y2="685.02"/><path class="cls-4" d="M266.24,702.28a11.28,11.28,0,1,1,11-11.52A11.29,11.29,0,0,1,266.24,702.28Z"/><path class="cls-4" d="M544.35,696.29a11.28,11.28,0,1,0-11.52-11A11.28,11.28,0,0,0,544.35,696.29Z"/><line class="cls-3" x1="405.05" y1="638.87" x2="544.1" y2="685.02"/><path class="cls-4" d="M401.5,649.57a11.28,11.28,0,1,1,14.26-7.15A11.27,11.27,0,0,1,401.5,649.57Z"/><path class="cls-4" d="M540.55,695.72a11.28,11.28,0,1,0-7.15-14.26A11.28,11.28,0,0,0,540.55,695.72Z"/><line class="cls-3" x1="266" y1="691" x2="339.87" y2="655.96"/><path class="cls-4" d="M270.83,701.19a11.28,11.28,0,1,1,5.36-15A11.28,11.28,0,0,1,270.83,701.19Z"/><path class="cls-4" d="M344.71,666.15a11.28,11.28,0,1,0-15-5.36A11.28,11.28,0,0,0,344.71,666.15Z"/><line class="cls-3" x1="405.05" y1="671.34" x2="266" y2="691"/><path class="cls-4" d="M403.47,660.18a11.28,11.28,0,1,1-9.59,12.74A11.27,11.27,0,0,1,403.47,660.18Z"/><path class="cls-4" d="M264.42,679.83a11.28,11.28,0,1,0,12.75,9.59A11.28,11.28,0,0,0,264.42,679.83Z"/><line class="cls-3" x1="544.1" y1="685.02" x2="405.05" y2="671.34"/><path class="cls-4" d="M545.21,673.79a11.28,11.28,0,1,1-12.33,10.12A11.28,11.28,0,0,1,545.21,673.79Z"/><path class="cls-4" d="M406.16,660.12a11.28,11.28,0,1,0,10.12,12.33A11.28,11.28,0,0,0,406.16,660.12Z"/><line class="cls-3" x1="339.87" y1="655.96" x2="405.05" y2="671.34"/><path class="cls-4" d="M337.28,666.94a11.28,11.28,0,1,1,13.57-8.39A11.29,11.29,0,0,1,337.28,666.94Z"/><path class="cls-4" d="M402.46,682.32a11.28,11.28,0,1,0-8.39-13.57A11.28,11.28,0,0,0,402.46,682.32Z"/><line class="cls-3" x1="405.05" y1="638.87" x2="405.05" y2="671.34"/><path class="cls-4" d="M393.77,638.87a11.28,11.28,0,1,1,11.28,11.28A11.28,11.28,0,0,1,393.77,638.87Z"/><circle class="cls-4" cx="405.05" cy="671.34" r="11.28" transform="translate(-292.45 313.21) rotate(-31.72)"/><line class="cls-3" x1="339.87" y1="655.96" x2="405.05" y2="638.87"/><path class="cls-4" d="M342.73,666.87a11.28,11.28,0,1,1,8-13.77A11.28,11.28,0,0,1,342.73,666.87Z"/><path class="cls-4" d="M407.91,649.78a11.28,11.28,0,1,0-13.77-8A11.28,11.28,0,0,0,407.91,649.78Z"/><line class="cls-3" x1="462.99" y1="438.89" x2="405.05" y2="638.87"/><path class="cls-4" d="M452.16,435.75a11.27,11.27,0,1,1,7.69,14A11.28,11.28,0,0,1,452.16,435.75Z"/><path class="cls-4" d="M394.22,635.73a11.28,11.28,0,1,0,14-7.7A11.27,11.27,0,0,0,394.22,635.73Z"/><line class="cls-3" x1="350.01" y1="361.11" x2="405.05" y2="638.87"/><path class="cls-4" d="M339,363.31a11.28,11.28,0,1,1,13.25,8.87A11.28,11.28,0,0,1,339,363.31Z"/><path class="cls-4" d="M394,641.06a11.28,11.28,0,1,0,8.87-13.26A11.27,11.27,0,0,0,394,641.06Z"/><line class="cls-3" x1="348.56" y1="551.7" x2="339.87" y2="655.96"/><path class="cls-4" d="M337.32,550.76a11.28,11.28,0,1,1,10.3,12.18A11.28,11.28,0,0,1,337.32,550.76Z"/><path class="cls-4" d="M328.63,655a11.28,11.28,0,1,0,12.18-10.3A11.28,11.28,0,0,0,328.63,655Z"/><line class="cls-3" x1="405.05" y1="638.87" x2="348.56" y2="551.7"/><path class="cls-4" d="M414.52,632.73a11.28,11.28,0,1,1-15.6-3.33A11.29,11.29,0,0,1,414.52,632.73Z"/><path class="cls-4" d="M358,545.56a11.28,11.28,0,1,0-3.33,15.6A11.29,11.29,0,0,0,358,545.56Z"/><line class="cls-3" x1="455.75" y1="595.28" x2="405.05" y2="638.87"/><path class="cls-4" d="M448.39,586.73a11.28,11.28,0,1,1-1.2,15.91A11.29,11.29,0,0,1,448.39,586.73Z"/><path class="cls-4" d="M397.7,630.32a11.27,11.27,0,1,0,15.9,1.19A11.28,11.28,0,0,0,397.7,630.32Z"/><line class="cls-3" x1="462.99" y1="438.89" x2="455.75" y2="595.28"/><path class="cls-4" d="M451.72,438.36a11.28,11.28,0,1,1,10.75,11.79A11.28,11.28,0,0,1,451.72,438.36Z"/><path class="cls-4" d="M444.48,594.76A11.28,11.28,0,1,0,456.27,584,11.28,11.28,0,0,0,444.48,594.76Z"/><line class="cls-3" x1="350.01" y1="361.11" x2="462.99" y2="438.89"/><path class="cls-4" d="M343.61,370.41a11.29,11.29,0,1,1,15.69-2.9A11.29,11.29,0,0,1,343.61,370.41Z"/><path class="cls-4" d="M456.59,448.18a11.29,11.29,0,1,0-2.89-15.69A11.29,11.29,0,0,0,456.59,448.18Z"/><line class="cls-3" x1="348.56" y1="551.7" x2="350.01" y2="361.11"/><path class="cls-4" d="M359.84,551.78a11.28,11.28,0,1,1-11.19-11.36A11.29,11.29,0,0,1,359.84,551.78Z"/><path class="cls-4" d="M361.29,361.2a11.28,11.28,0,1,0-11.37,11.19A11.27,11.27,0,0,0,361.29,361.2Z"/><line class="cls-3" x1="455.75" y1="595.28" x2="474.58" y2="647.41"/><path class="cls-4" d="M445.14,599.11a11.28,11.28,0,1,1,14.44,6.78A11.28,11.28,0,0,1,445.14,599.11Z"/><path class="cls-4" d="M464,651.25a11.28,11.28,0,1,0,6.78-14.44A11.28,11.28,0,0,0,464,651.25Z"/><line class="cls-3" x1="405.78" y1="638.87" x2="474.58" y2="647.41"/><path class="cls-4" d="M404.39,650.06a11.28,11.28,0,1,1,12.58-9.8A11.28,11.28,0,0,1,404.39,650.06Z"/><path class="cls-4" d="M473.19,658.61A11.28,11.28,0,1,0,463.38,646,11.28,11.28,0,0,0,473.19,658.61Z"/><line class="cls-3" x1="544.1" y1="685.02" x2="474.58" y2="647.41"/><path class="cls-4" d="M549.47,675.1a11.28,11.28,0,1,1-15.29,4.55A11.26,11.26,0,0,1,549.47,675.1Z"/><path class="cls-4" d="M479.94,637.49a11.28,11.28,0,1,0,4.56,15.29A11.27,11.27,0,0,0,479.94,637.49Z"/></g><line class="cls-3" x1="575.5" y1="701.63" x2="228.12" y2="695.42"/><path class="cls-4" d="M575.8,684.71a16.92,16.92,0,1,1-17.22,16.61A16.94,16.94,0,0,1,575.8,684.71Z"/><path class="cls-4" d="M228.32,684.15a11.28,11.28,0,1,0,11.08,11.48A11.28,11.28,0,0,0,228.32,684.15Z"/><line class="cls-3" x1="401.81" y1="647.59" x2="228.12" y2="695.42"/><path class="cls-4" d="M397.32,631.28a16.92,16.92,0,1,1-11.82,20.8A16.92,16.92,0,0,1,397.32,631.28Z"/><path class="cls-4" d="M225.12,684.55A11.28,11.28,0,1,0,239,692.43,11.28,11.28,0,0,0,225.12,684.55Z"/><line class="cls-3" x1="575.5" y1="701.63" x2="483.23" y2="665.31"/><path class="cls-4" d="M581.7,685.88a16.92,16.92,0,1,1-21.94,9.55A16.91,16.91,0,0,1,581.7,685.88Z"/><path class="cls-4" d="M487.36,654.81a11.28,11.28,0,1,0,6.36,14.63A11.29,11.29,0,0,0,487.36,654.81Z"/><line class="cls-3" x1="401.81" y1="681.25" x2="575.5" y2="701.63"/><path class="cls-4" d="M399.84,698.05a16.92,16.92,0,1,1,18.77-14.83A16.91,16.91,0,0,1,399.84,698.05Z"/><path class="cls-4" d="M574.19,712.83a11.28,11.28,0,1,0-9.89-12.52A11.28,11.28,0,0,0,574.19,712.83Z"/><line class="cls-3" x1="228.12" y1="695.42" x2="401.81" y2="681.25"/><path class="cls-4" d="M229.49,712.29A16.92,16.92,0,1,1,245,694.05,16.92,16.92,0,0,1,229.49,712.29Z"/><path class="cls-4" d="M402.73,692.49a11.28,11.28,0,1,0-12.16-10.32A11.28,11.28,0,0,0,402.73,692.49Z"/><line class="cls-3" x1="483.23" y1="665.31" x2="401.81" y2="681.25"/><path class="cls-4" d="M480,648.7a16.92,16.92,0,1,1-13.36,19.86A16.93,16.93,0,0,1,480,648.7Z"/><path class="cls-4" d="M399.64,670.18a11.28,11.28,0,1,0,13.24,8.9A11.29,11.29,0,0,0,399.64,670.18Z"/><line class="cls-3" x1="401.81" y1="647.59" x2="401.81" y2="681.25"/><path class="cls-4" d="M384.89,647.59a16.92,16.92,0,1,1,16.92,16.92A16.93,16.93,0,0,1,384.89,647.59Z"/><path class="cls-4" d="M390.53,681.25A11.28,11.28,0,1,0,401.81,670,11.28,11.28,0,0,0,390.53,681.25Z"/><line class="cls-3" x1="483.23" y1="665.31" x2="400.9" y2="644.05"/><path class="cls-4" d="M487.46,648.92a16.92,16.92,0,1,1-20.61,12.16A16.94,16.94,0,0,1,487.46,648.92Z"/><path class="cls-4" d="M403.73,633.13a11.28,11.28,0,1,0,8.1,13.74A11.28,11.28,0,0,0,403.73,633.13Z"/><line class="cls-3" x1="329.44" y1="440.31" x2="401.81" y2="647.59"/><path class="cls-4" d="M313.46,445.88A16.92,16.92,0,1,1,335,456.28,16.93,16.93,0,0,1,313.46,445.88Z"/><path class="cls-4" d="M391.16,651.31a11.28,11.28,0,1,0,6.93-14.37A11.29,11.29,0,0,0,391.16,651.31Z"/><line class="cls-3" x1="470.56" y1="359.69" x2="401.81" y2="647.59"/><path class="cls-4" d="M454.11,355.76a16.92,16.92,0,1,1,12.52,20.39A16.91,16.91,0,0,1,454.11,355.76Z"/><path class="cls-4" d="M390.84,645a11.28,11.28,0,1,0,13.59-8.35A11.28,11.28,0,0,0,390.84,645Z"/><line class="cls-3" x1="472.37" y1="557.23" x2="483.23" y2="665.31"/><path class="cls-4" d="M455.54,558.93a16.92,16.92,0,1,1,18.52,15.14A16.91,16.91,0,0,1,455.54,558.93Z"/><path class="cls-4" d="M472,666.43a11.28,11.28,0,1,0,10.1-12.35A11.29,11.29,0,0,0,472,666.43Z"/><line class="cls-3" x1="401.81" y1="647.59" x2="472.37" y2="557.23"/><path class="cls-4" d="M415.14,658a16.92,16.92,0,1,1-2.92-23.74A16.91,16.91,0,0,1,415.14,658Z"/><path class="cls-4" d="M481.26,564.18a11.28,11.28,0,1,0-15.83,1.94A11.29,11.29,0,0,0,481.26,564.18Z"/><line class="cls-3" x1="338.48" y1="602.41" x2="401.81" y2="647.59"/><path class="cls-4" d="M328.66,616.19a16.92,16.92,0,1,1,23.6-4A16.93,16.93,0,0,1,328.66,616.19Z"/><path class="cls-4" d="M395.26,656.77A11.28,11.28,0,1,0,392.63,641,11.28,11.28,0,0,0,395.26,656.77Z"/><line class="cls-3" x1="329.44" y1="440.31" x2="338.48" y2="602.41"/><path class="cls-4" d="M312.55,441.25a16.92,16.92,0,1,1,17.83,15.95A16.92,16.92,0,0,1,312.55,441.25Z"/><path class="cls-4" d="M327.22,603a11.28,11.28,0,1,0,10.64-11.89A11.28,11.28,0,0,0,327.22,603Z"/><line class="cls-3" x1="470.56" y1="359.69" x2="329.44" y2="440.31"/><path class="cls-4" d="M462.17,345a16.92,16.92,0,1,1-6.3,23.09A16.92,16.92,0,0,1,462.17,345Z"/><path class="cls-4" d="M323.84,430.51a11.28,11.28,0,1,0,15.39,4.2A11.29,11.29,0,0,0,323.84,430.51Z"/><line class="cls-3" x1="472.37" y1="557.23" x2="470.56" y2="359.69"/><path class="cls-4" d="M489.29,557.08a16.92,16.92,0,1,1-17.07-16.76A16.92,16.92,0,0,1,489.29,557.08Z"/><path class="cls-4" d="M481.84,359.59A11.28,11.28,0,1,0,470.67,371,11.27,11.27,0,0,0,481.84,359.59Z"/><line class="cls-3" x1="338.48" y1="602.41" x2="314.96" y2="656.45"/><path class="cls-4" d="M323,595.66a16.92,16.92,0,1,1,8.76,22.26A16.92,16.92,0,0,1,323,595.66Z"/><path class="cls-4" d="M304.62,652a11.28,11.28,0,1,0,14.85-5.84A11.28,11.28,0,0,0,304.62,652Z"/><line class="cls-3" x1="400.9" y1="647.59" x2="314.96" y2="656.45"/><path class="cls-4" d="M399.17,630.76a16.92,16.92,0,1,1-15.09,18.56A16.91,16.91,0,0,1,399.17,630.76Z"/><path class="cls-4" d="M313.81,645.23a11.28,11.28,0,1,0,12.37,10.06A11.29,11.29,0,0,0,313.81,645.23Z"/><line class="cls-3" x1="228.12" y1="695.42" x2="314.96" y2="656.45"/><path class="cls-4" d="M235.05,710.86a16.92,16.92,0,1,1,8.5-22.36A16.92,16.92,0,0,1,235.05,710.86Z"/><path class="cls-4" d="M319.58,666.74a11.28,11.28,0,1,0-14.91-5.67A11.28,11.28,0,0,0,319.58,666.74Z"/><line class="cls-3" x1="224.5" y1="98.38" x2="571.88" y2="104.58"/><path class="cls-4" d="M224.2,115.29a16.92,16.92,0,1,1,17.22-16.61A16.94,16.94,0,0,1,224.2,115.29Z"/><circle class="cls-4" cx="571.88" cy="104.58" r="11.28" transform="translate(-9.08 82.82) rotate(-8.22)"/><line class="cls-3" x1="398.19" y1="152.41" x2="571.88" y2="104.58"/><path class="cls-4" d="M402.68,168.72a16.92,16.92,0,1,1,11.82-20.8A16.92,16.92,0,0,1,402.68,168.72Z"/><circle class="cls-4" cx="571.88" cy="104.58" r="11.28" transform="matrix(0.91, -0.41, 0.41, 0.91, 7.06, 242.26)"/><line class="cls-3" x1="224.5" y1="98.38" x2="316.77" y2="134.69"/><path class="cls-4" d="M218.3,114.12a16.92,16.92,0,1,1,21.94-9.55A16.91,16.91,0,0,1,218.3,114.12Z"/><path class="cls-4" d="M312.64,145.19a11.28,11.28,0,1,0-6.36-14.63A11.29,11.29,0,0,0,312.64,145.19Z"/><line class="cls-3" x1="398.19" y1="118.75" x2="224.5" y2="98.38"/><path class="cls-4" d="M400.16,102a16.92,16.92,0,1,1-18.77,14.83A16.91,16.91,0,0,1,400.16,102Z"/><path class="cls-4" d="M225.81,87.17a11.28,11.28,0,1,0,9.89,12.52A11.28,11.28,0,0,0,225.81,87.17Z"/><line class="cls-3" x1="571.88" y1="104.58" x2="398.19" y2="118.75"/><path class="cls-4" d="M570.51,87.71A16.92,16.92,0,1,1,555,106,16.92,16.92,0,0,1,570.51,87.71Z"/><path class="cls-4" d="M397.27,107.51a11.28,11.28,0,1,0,12.16,10.32A11.28,11.28,0,0,0,397.27,107.51Z"/><line class="cls-3" x1="316.77" y1="134.69" x2="398.19" y2="118.75"/><path class="cls-4" d="M320,151.3a16.92,16.92,0,1,1,13.36-19.86A16.93,16.93,0,0,1,320,151.3Z"/><path class="cls-4" d="M400.36,129.82a11.28,11.28,0,1,0-13.24-8.9A11.29,11.29,0,0,0,400.36,129.82Z"/><line class="cls-3" x1="398.19" y1="152.41" x2="398.19" y2="118.75"/><path class="cls-4" d="M415.11,152.41a16.92,16.92,0,1,1-16.92-16.92A16.93,16.93,0,0,1,415.11,152.41Z"/><path class="cls-4" d="M409.47,118.75A11.28,11.28,0,1,0,398.19,130,11.28,11.28,0,0,0,409.47,118.75Z"/><line class="cls-3" x1="316.77" y1="134.69" x2="398.19" y2="152.41"/><path class="cls-4" d="M313.18,151.23a16.92,16.92,0,1,1,20.13-12.94A16.92,16.92,0,0,1,313.18,151.23Z"/><path class="cls-4" d="M395.79,163.43A11.28,11.28,0,1,0,387.17,150,11.28,11.28,0,0,0,395.79,163.43Z"/><line class="cls-3" x1="470.56" y1="359.69" x2="398.19" y2="152.41"/><path class="cls-4" d="M486.54,354.12A16.92,16.92,0,1,1,465,343.72,16.93,16.93,0,0,1,486.54,354.12Z"/><path class="cls-4" d="M408.84,148.69a11.28,11.28,0,1,0-6.93,14.37A11.29,11.29,0,0,0,408.84,148.69Z"/><line class="cls-3" x1="329.44" y1="440.31" x2="398.19" y2="152.41"/><path class="cls-4" d="M345.89,444.24a16.92,16.92,0,1,1-12.52-20.39A16.91,16.91,0,0,1,345.89,444.24Z"/><path class="cls-4" d="M409.16,155a11.28,11.28,0,1,0-13.59,8.35A11.28,11.28,0,0,0,409.16,155Z"/><line class="cls-3" x1="327.63" y1="242.77" x2="316.77" y2="134.69"/><path class="cls-4" d="M344.46,241.07a16.92,16.92,0,1,1-18.52-15.14A16.91,16.91,0,0,1,344.46,241.07Z"/><path class="cls-4" d="M328,133.57a11.28,11.28,0,1,0-10.1,12.35A11.29,11.29,0,0,0,328,133.57Z"/><line class="cls-3" x1="398.19" y1="152.41" x2="327.63" y2="242.77"/><path class="cls-4" d="M384.86,142a16.92,16.92,0,1,1,2.92,23.75A16.91,16.91,0,0,1,384.86,142Z"/><path class="cls-4" d="M318.74,235.82a11.28,11.28,0,1,0,15.83-1.94A11.28,11.28,0,0,0,318.74,235.82Z"/><line class="cls-3" x1="461.52" y1="197.59" x2="398.19" y2="152.41"/><path class="cls-4" d="M471.34,183.81a16.92,16.92,0,1,1-23.6,3.95A16.93,16.93,0,0,1,471.34,183.81Z"/><path class="cls-4" d="M404.74,143.23A11.28,11.28,0,1,0,407.37,159,11.28,11.28,0,0,0,404.74,143.23Z"/><line class="cls-3" x1="470.56" y1="359.69" x2="461.52" y2="197.59"/><path class="cls-4" d="M487.45,358.75a16.92,16.92,0,1,1-17.83-15.95A16.92,16.92,0,0,1,487.45,358.75Z"/><path class="cls-4" d="M472.78,197a11.28,11.28,0,1,0-10.64,11.89A11.28,11.28,0,0,0,472.78,197Z"/><line class="cls-3" x1="329.44" y1="440.31" x2="470.56" y2="359.69"/><path class="cls-4" d="M337.83,455a16.92,16.92,0,1,1,6.3-23.09A16.92,16.92,0,0,1,337.83,455Z"/><path class="cls-4" d="M476.16,369.49a11.28,11.28,0,1,0-15.39-4.2A11.29,11.29,0,0,0,476.16,369.49Z"/><line class="cls-3" x1="327.63" y1="242.77" x2="329.44" y2="440.31"/><path class="cls-4" d="M310.71,242.92a16.92,16.92,0,1,1,17.07,16.76A16.92,16.92,0,0,1,310.71,242.92Z"/><path class="cls-4" d="M318.16,440.41A11.28,11.28,0,1,0,329.33,429,11.27,11.27,0,0,0,318.16,440.41Z"/><line class="cls-3" x1="461.52" y1="197.59" x2="485.04" y2="143.55"/><path class="cls-4" d="M477,204.34a16.92,16.92,0,1,1-8.76-22.26A16.92,16.92,0,0,1,477,204.34Z"/><path class="cls-4" d="M495.38,148.05a11.28,11.28,0,1,0-14.85,5.84A11.28,11.28,0,0,0,495.38,148.05Z"/><line class="cls-3" x1="399.1" y1="152.41" x2="485.04" y2="143.55"/><path class="cls-4" d="M400.83,169.24a16.92,16.92,0,1,1,15.09-18.56A16.91,16.91,0,0,1,400.83,169.24Z"/><path class="cls-4" d="M486.19,154.77a11.28,11.28,0,1,0-12.37-10.06A11.29,11.29,0,0,0,486.19,154.77Z"/><line class="cls-3" x1="571.88" y1="104.58" x2="485.04" y2="143.55"/><path class="cls-4" d="M565,89.14a16.92,16.92,0,1,1-8.5,22.36A16.92,16.92,0,0,1,565,89.14Z"/><path class="cls-4" d="M480.42,133.26a11.28,11.28,0,1,0,14.91,5.67A11.28,11.28,0,0,0,480.42,133.26Z"/></svg>